<?xml version="1.0" standalone="no"?>
<!DOCTYPE svg PUBLIC "-//W3C//DTD SVG 20010904//EN"
 "http://www.w3.org/TR/2001/REC-SVG-20010904/DTD/svg10.dtd">
<svg version="1.0" xmlns="http://www.w3.org/2000/svg"
 width="208.000000pt" height="208.000000pt" viewBox="0 0 208.000000 208.000000"
 preserveAspectRatio="xMidYMid meet">
<metadata>
Created by potrace 1.11, written by Peter Selinger 2001-2013
</metadata>
<g transform="translate(0.000000,208.000000) scale(0.100000,-0.100000)"
fill="#000000" stroke="none">
<path d="M0 1040 l0 -1040 834 0 c658 0 835 3 839 13 4 10 6 10 6 0 2 -22 41
-15 41 7 0 13 7 20 20 20 16 0 20 7 20 30 0 17 5 30 10 30 6 0 10 -4 10 -10 0
-5 8 -10 18 -10 26 0 42 -20 42 -52 l0 -28 110 0 c102 0 110 1 110 19 0 11 4
22 9 26 6 3 10 415 11 1020 l1 1015 -1041 0 -1040 0 0 -1040z m722 513 c3 -27
0 -59 -5 -73 -5 -14 -11 -53 -12 -88 -2 -34 -7 -68 -12 -75 -5 -7 -8 -28 -6
-47 6 -80 8 -210 2 -210 -3 0 -13 25 -23 55 -17 56 -32 77 -20 29 5 -17 3 -25
-3 -21 -14 9 -23 108 -12 129 5 10 12 72 15 139 4 73 11 131 20 147 8 15 14
35 14 45 0 10 8 17 19 17 15 0 20 -9 23 -47z m-165 -215 c-3 -8 -6 -5 -6 6 -1
11 2 17 5 13 3 -3 4 -12 1 -19z m203 -24 c0 -8 -5 -12 -10 -9 -6 4 -8 11 -5
16 9 14 15 11 15 -7z m-200 -105 c-7 -38 -8 -34 -8 31 0 53 2 66 7 44 4 -17 5
-51 1 -75z m882 -26 c-3 -16 -7 -22 -10 -15 -4 13 4 42 11 42 2 0 2 -12 -1
-27z m-412 -19 c0 -8 -4 -12 -10 -9 -5 3 -10 13 -10 21 0 8 5 12 10 9 6 -3 10
-13 10 -21z m-110 -7 c0 -2 -10 -12 -21 -23 -22 -19 -22 -19 -8 4 12 19 29 30
29 19z m-340 -57 c0 -5 -5 -10 -11 -10 -5 0 -7 5 -4 10 3 6 8 10 11 10 2 0 4
-4 4 -10z m10 -34 c0 -8 8 -16 18 -18 11 -2 13 -6 5 -11 -6 -4 -19 0 -27 9
-18 18 -21 34 -6 34 6 0 10 -6 10 -14z m865 4 c3 -5 2 -10 -4 -10 -5 0 -13 5
-16 10 -3 6 -2 10 4 10 5 0 13 -4 16 -10z m-755 -51 c0 -6 -4 -7 -10 -4 -19
12 -10 -7 13 -27 12 -11 16 -17 10 -13 -9 4 -13 -5 -13 -32 -1 -28 -3 -34 -10
-22 -18 30 -27 94 -16 105 12 13 26 9 26 -7z m101 -65 c-9 -28 -9 -29 -10 -3
-1 14 2 29 6 32 11 12 13 2 4 -29z m-94 -176 c-2 -13 -4 -5 -4 17 -1 22 1 32
4 23 2 -10 2 -28 0 -40z m14 -90 c2 -26 0 -50 -4 -54 -4 -4 -7 19 -7 51 0 69
7 70 11 3z m9 -88 c0 -11 -1 -22 -2 -23 -2 -2 3 -11 10 -19 14 -18 7 -44 -14
-52 -9 -3 -12 -10 -9 -16 3 -5 0 -10 -9 -10 -8 0 -13 7 -11 18 2 9 6 41 10 70
7 50 25 73 25 32z m785 -110 c13 -6 15 -9 5 -9 -8 0 -22 4 -30 9 -18 12 -2 12
25 0z m85 -26 c0 -9 -5 -14 -12 -12 -18 6 -21 28 -4 28 9 0 16 -7 16 -16z
m-218 -99 c0 -5 -5 -11 -11 -13 -6 -2 -11 4 -11 13 0 9 5 15 11 13 6 -2 11 -8
11 -13z m326 -297 c-6 -18 -28 -21 -28 -4 0 9 7 16 16 16 9 0 14 -5 12 -12z
m149 -40 c-2 -13 -4 -5 -4 17 -1 22 1 32 4 23 2 -10 2 -28 0 -40z"/>
</g>
</svg>
