<?xml version="1.0" standalone="no"?>
<!DOCTYPE svg PUBLIC "-//W3C//DTD SVG 20010904//EN"
 "http://www.w3.org/TR/2001/REC-SVG-20010904/DTD/svg10.dtd">
<svg version="1.0" xmlns="http://www.w3.org/2000/svg"
 width="1024.000000pt" height="1024.000000pt" viewBox="0 0 1024.000000 1024.000000"
 preserveAspectRatio="xMidYMid meet">
<metadata>
Created by potrace 1.11, written by Peter Selinger 2001-2013
</metadata>
<g transform="translate(0.000000,1024.000000) scale(0.100000,-0.100000)"
fill="#000000" stroke="none">
<path d="M0 9635 l0 -606 63 7 c107 11 134 -19 115 -128 -12 -67 -34 -98 -72
-98 -30 0 -46 -18 -46 -52 0 -22 8 -33 34 -49 36 -21 55 -64 36 -83 -6 -6 -37
-10 -71 -9 l-59 2 0 -232 0 -233 40 4 c40 4 46 -1 34 -32 -4 -10 -18 -16 -40
-16 l-34 0 0 -1565 1 -1565 23 0 c13 0 44 -9 68 -20 48 -21 70 -57 83 -134 3
-21 10 -49 15 -62 9 -22 12 -23 32 -12 13 7 30 19 39 26 9 7 23 10 32 6 23 -8
79 -100 75 -121 -5 -27 -44 -42 -86 -32 -68 16 -214 30 -248 23 l-34 -6 0
-1557 0 -1557 98 3 c96 3 196 14 342 38 46 7 86 9 105 4 16 -5 57 -9 91 -9 59
0 61 1 57 24 -5 22 -11 25 -67 30 -74 6 -146 16 -165 22 -11 4 -10 8 4 24 22
24 33 25 56 4 14 -13 22 -13 39 -4 16 8 71 11 182 8 l160 -5 36 -42 c30 -34
49 -45 103 -60 62 -18 120 -43 146 -63 19 -15 -1 -61 -37 -85 -36 -25 -79 -80
-114 -145 -21 -41 -26 -44 -83 -54 -33 -6 -68 -14 -79 -18 -34 -14 -187 -43
-289 -55 -55 -6 -149 -21 -210 -31 -60 -11 -118 -20 -128 -20 -43 0 -2 -19 54
-25 58 -7 99 -29 99 -54 0 -15 -62 -49 -115 -62 -27 -7 -59 -18 -70 -24 -11
-7 -64 -29 -118 -50 l-97 -38 0 -203 c0 -177 2 -204 15 -204 22 0 65 30 65 44
0 17 85 56 121 56 41 0 106 35 114 61 8 26 -7 38 -50 40 -16 1 -1 5 35 10 36
4 92 14 125 23 33 9 80 21 105 26 25 6 83 28 130 48 78 34 92 37 165 34 71 -2
87 1 141 27 42 20 68 40 83 64 17 28 29 36 59 40 20 2 75 20 122 40 74 32 95
37 168 37 l82 0 0 -37 c0 -48 -29 -107 -55 -111 -11 -2 -46 -13 -78 -24 -44
-16 -57 -25 -52 -37 3 -8 8 -33 12 -56 5 -40 4 -41 -51 -83 -31 -23 -70 -49
-86 -57 -18 -9 -30 -23 -30 -35 0 -25 -15 -26 -25 -2 -6 15 -10 13 -34 -15
-24 -29 -33 -33 -73 -31 -37 2 -53 -3 -83 -26 -21 -16 -57 -33 -81 -37 -24 -5
-75 -18 -114 -30 -59 -18 -70 -24 -70 -43 0 -29 -27 -66 -49 -66 -10 0 -38
-16 -62 -35 -31 -25 -50 -33 -66 -28 -16 3 -34 -3 -57 -21 -19 -14 -53 -28
-76 -32 -25 -4 -54 -18 -73 -35 -28 -26 -33 -27 -53 -14 -33 21 -48 0 -31 -44
11 -31 10 -34 -16 -57 -25 -21 -35 -24 -78 -18 -34 5 -49 3 -49 -5 0 -16 652
-11 657 5 2 6 -14 23 -37 39 -22 15 -37 31 -34 36 3 5 25 9 49 9 34 0 47 -5
55 -20 16 -30 56 -26 74 8 14 27 17 28 74 24 33 -2 62 0 65 6 4 5 -3 28 -14
52 -11 23 -18 48 -15 55 2 7 -2 16 -10 19 -22 8 -17 33 9 39 12 3 69 9 127 12
58 4 119 11 135 15 17 5 56 12 87 16 l58 6 -1 -38 c-1 -22 6 -61 15 -87 9 -26
16 -55 16 -64 0 -8 9 -30 19 -47 10 -17 22 -46 26 -64 l7 -32 4414 0 4414 0 0
668 0 667 -55 48 c-52 45 -95 109 -95 139 0 33 -75 195 -102 220 -16 15 -40
51 -53 80 -26 60 -75 110 -157 162 -62 39 -83 63 -94 111 -4 17 -15 46 -25 67
-27 53 -29 235 -4 301 10 26 21 47 26 47 20 0 31 -45 24 -106 -6 -55 -4 -65
13 -81 66 -61 72 -64 93 -58 22 7 22 8 -6 85 -20 52 -16 66 39 143 22 30 39
68 46 105 6 31 17 68 24 82 12 25 129 111 259 190 l67 41 -1 522 -1 522 -24
-90 c-13 -49 -28 -130 -33 -180 -16 -159 -76 -258 -190 -311 -46 -21 -134
-111 -161 -165 -33 -64 -63 -176 -63 -234 1 -30 11 -76 27 -114 16 -39 26 -84
26 -113 0 -41 -5 -54 -34 -85 -32 -35 -38 -37 -85 -35 -29 1 -69 11 -91 22
-22 11 -49 20 -60 20 -33 0 -93 -55 -125 -115 -17 -30 -37 -55 -45 -55 -27 1
-123 55 -141 80 -14 19 -20 50 -25 130 -3 58 -7 115 -10 127 -2 13 -29 41 -60
64 -68 50 -78 72 -53 119 11 19 19 40 19 47 0 31 45 94 81 115 42 23 94 99 85
123 -3 8 -22 22 -43 32 -46 22 -54 60 -23 111 20 32 58 43 86 24 26 -16 53
-75 43 -93 -23 -44 40 -27 136 37 l55 36 84 -12 c46 -7 91 -10 100 -7 8 3 22
30 31 60 18 61 12 88 -28 124 -50 46 -62 159 -40 363 20 189 43 251 111 294
61 38 80 41 109 14 14 -12 29 -33 34 -45 7 -19 16 -23 56 -23 43 0 50 4 93 49
l46 49 39 -14 c65 -22 75 -14 75 67 0 67 -1 69 -25 69 -14 0 -47 -11 -73 -24
-56 -28 -153 -50 -182 -41 -50 16 -65 96 -39 211 15 66 37 90 108 115 30 10
61 25 70 32 9 8 44 27 79 42 l62 28 0 2718 0 2719 -2073 0 -2072 0 4 -77 c2
-50 10 -90 22 -113 25 -46 24 -74 -6 -118 -22 -32 -23 -39 -11 -57 10 -14 23
-19 47 -18 144 9 140 9 160 -16 27 -34 24 -61 -16 -117 -19 -27 -35 -59 -35
-72 0 -29 -27 -94 -43 -104 -19 -12 -54 -9 -66 6 -6 8 -33 19 -59 25 -26 7
-71 21 -100 32 -29 10 -64 19 -77 19 -14 0 -34 9 -45 20 -35 35 -47 26 -52
-42 -3 -35 -8 -71 -13 -80 -6 -15 -2 -18 23 -18 24 0 35 -7 50 -32 26 -44 33
-70 23 -87 -13 -21 -79 35 -92 79 -15 50 -98 90 -189 90 -36 0 -84 7 -108 17
-43 16 -45 16 -58 -2 -11 -14 -27 -19 -66 -20 -29 0 -53 5 -55 11 -2 6 8 26
23 44 22 26 25 33 13 41 -23 14 -43 10 -57 -12 -9 -14 -20 -19 -34 -16 -11 3
-31 -1 -43 -9 -25 -16 -61 -8 -84 20 -10 12 -32 16 -87 16 -69 0 -74 -1 -86
-27 -12 -25 -16 -27 -79 -24 -68 2 -99 -11 -99 -44 0 -7 -17 -26 -38 -42 -22
-16 -37 -34 -34 -42 6 -17 -15 -31 -48 -31 -21 0 -31 -12 -59 -65 -47 -92 -66
-113 -109 -121 -20 -4 -56 -16 -79 -26 -37 -16 -43 -23 -43 -48 0 -26 7 -33
52 -56 62 -30 108 -71 108 -93 -1 -35 -28 -89 -72 -146 -26 -33 -48 -73 -50
-90 -3 -26 -7 -30 -38 -33 -19 -2 -41 -8 -48 -14 -9 -8 -18 -6 -35 9 -12 11
-29 23 -37 25 -18 6 -65 -25 -99 -65 -38 -46 -58 -51 -103 -31 -38 17 -39 19
-33 57 6 34 3 43 -21 69 -45 47 -93 66 -210 83 -116 18 -206 12 -320 -20 -100
-28 -118 -61 -136 -243 -5 -59 -12 -128 -15 -153 -7 -64 12 -78 62 -45 27 19
42 23 59 17 14 -6 28 -4 41 5 23 17 61 18 72 2 4 -7 8 -33 8 -58 0 -41 2 -45
24 -45 18 0 27 8 34 30 13 38 23 45 70 45 21 0 53 6 71 14 71 30 107 29 202
-4 66 -24 118 -34 204 -41 246 -21 249 -21 213 -31 -24 -6 -34 -16 -38 -36
-16 -79 -105 -185 -164 -198 -14 -3 -46 -12 -71 -20 -25 -8 -74 -15 -108 -14
-42 1 -72 -4 -87 -14 -35 -23 -140 -56 -178 -56 -19 0 -55 -11 -81 -25 -25
-14 -56 -24 -68 -22 -32 3 -32 -17 -1 -54 20 -23 29 -47 33 -83 5 -48 7 -52
61 -88 37 -24 59 -46 63 -64 4 -14 5 -28 2 -31 -2 -3 -51 -7 -108 -10 -57 -3
-111 -10 -120 -14 -12 -7 -24 -2 -43 15 -14 13 -47 29 -73 37 -26 7 -55 22
-64 33 -15 19 -15 23 -1 39 15 15 15 19 0 35 -16 18 -13 62 4 62 17 0 69 84
69 112 0 15 -9 37 -21 49 -17 17 -27 20 -57 13 -21 -4 -44 -7 -52 -6 -38 2
-162 43 -187 61 -46 33 -105 31 -157 -4 -29 -20 -41 -23 -57 -15 -43 23 -10
93 95 200 88 89 159 193 171 247 3 18 20 43 35 57 54 45 56 145 5 154 -57 10
-61 90 -10 158 20 26 43 61 52 78 9 17 35 59 59 92 24 34 55 87 69 118 14 32
45 92 69 134 24 42 47 88 51 102 4 14 22 42 39 62 59 70 74 94 85 135 6 23 27
60 46 83 41 49 42 54 15 87 -11 14 -20 31 -20 38 0 18 39 50 97 79 29 15 53
31 53 36 0 6 9 10 19 10 13 0 24 13 35 40 8 21 26 46 39 54 35 23 152 37 202
24 50 -13 104 -4 133 22 31 29 83 26 134 -9 24 -16 63 -37 86 -46 47 -19 62
-50 43 -91 -13 -29 -31 -30 -101 -3 -84 32 -93 32 -149 9 -44 -19 -62 -22
-118 -16 -36 4 -74 11 -84 16 -45 25 -135 0 -164 -44 -9 -13 -29 -26 -43 -28
l-27 -4 28 -12 c15 -6 27 -19 27 -30 0 -10 5 -23 12 -30 17 -17 85 -15 138 4
25 9 72 16 105 16 36 0 69 5 83 14 12 8 59 19 103 24 44 5 85 12 91 16 7 4 52
8 101 9 82 1 92 3 109 26 11 13 43 35 71 49 37 18 53 32 55 48 2 15 -2 22 -12
22 -9 0 -30 13 -48 30 -28 25 -31 31 -18 40 28 18 78 22 107 8 23 -11 29 -20
31 -56 3 -38 7 -44 42 -62 22 -11 51 -20 65 -20 25 0 65 -31 65 -50 0 -15 32
-12 54 5 11 8 31 15 45 15 14 0 47 7 73 14 36 11 55 12 82 4 38 -12 46 -25 21
-34 -22 -9 -8 -24 21 -24 16 0 39 -15 67 -44 24 -25 57 -48 78 -54 41 -11 119
-58 119 -72 0 -23 43 -33 94 -21 42 9 61 9 101 -4 28 -8 56 -15 63 -15 18 0
15 46 -5 65 -20 20 -72 13 -90 -12 -10 -13 -24 -15 -78 -10 -36 4 -70 9 -75
12 -6 4 -10 28 -10 56 0 45 3 51 33 69 67 42 221 69 294 53 53 -12 67 -4 57
32 -10 34 -32 44 -85 38 -43 -5 -53 -3 -74 17 -28 26 -33 80 -14 159 5 24 7
52 4 62 -6 19 -64 19 -2390 19 l-2384 0 -13 -27 c-20 -42 -66 -43 -111 -4
l-35 31 -401 0 -401 0 0 -605z m950 -270 c10 -12 10 -28 2 -73 -17 -89 -21
-135 -13 -156 7 -18 11 -16 47 21 51 53 84 60 105 22 9 -17 4 -40 -26 -122
-44 -122 -82 -212 -105 -250 -17 -27 -18 -27 -35 -11 -36 37 -60 -12 -85 -176
-18 -123 -23 -206 -13 -225 9 -15 14 -12 42 29 36 52 46 56 55 24 11 -44 6
-95 -18 -164 -31 -93 -52 -132 -89 -171 -34 -37 -49 -39 -97 -19 -44 18 -62
12 -100 -35 -23 -29 -38 -39 -60 -39 -16 0 -32 5 -35 11 -4 6 -4 51 0 102 l7
91 48 50 c92 99 133 228 141 449 3 58 -8 70 -68 77 -37 4 -50 10 -59 29 -19
37 -2 63 68 105 36 22 71 48 78 60 7 11 19 76 26 144 15 136 24 154 103 214
41 31 63 35 81 13z m5098 -34 c3 -21 1 -23 -28 -19 -17 3 -33 1 -36 -4 -9 -14
-29 -9 -52 12 -35 33 -20 46 51 40 56 -5 62 -7 65 -29z m-3643 -11 c10 -44
-25 -116 -59 -122 -37 -7 -76 24 -68 54 14 58 53 98 93 98 22 0 29 -6 34 -30z
m2759 -145 c28 -13 72 -27 97 -30 43 -5 129 -50 129 -67 0 -4 -11 -15 -25 -24
-22 -15 -28 -14 -81 6 -46 17 -63 19 -87 10 -46 -16 -56 -13 -77 23 -19 30
-28 107 -13 107 3 0 29 -11 57 -25z m-2435 -155 c4 0 14 -13 23 -28 21 -34 14
-104 -13 -127 -20 -19 -28 -16 -107 37 -46 31 -65 59 -60 91 3 19 8 22 38 19
19 -2 46 1 60 7 14 5 31 8 38 5 8 -2 17 -4 21 -4z m-638 -176 c26 -13 30 -19
24 -42 -4 -15 -11 -33 -17 -39 -17 -21 -81 -16 -106 7 -24 23 -27 41 -12 71
13 24 68 26 111 3z m3913 -50 c9 -3 16 -14 16 -24 0 -10 6 -21 13 -23 7 -3 5
-6 -6 -6 -22 -1 -78 39 -71 51 6 9 26 10 48 2z m1146 -59 c120 -8 181 -38 216
-107 23 -45 25 -61 22 -132 -2 -67 -7 -87 -27 -113 -14 -18 -32 -35 -42 -38
-17 -6 -177 9 -263 24 -61 10 -99 50 -155 162 -56 111 -53 186 8 208 25 9 47
8 241 -4z m-2648 -62 c15 -15 28 -35 28 -44 0 -10 5 -21 10 -24 15 -9 12 -51
-5 -65 -10 -9 -15 -31 -15 -73 0 -61 -17 -97 -46 -97 -22 0 -44 30 -44 59 0
16 -7 34 -15 41 -19 16 -19 31 -1 24 23 -9 76 27 76 51 0 23 -29 51 -66 65
-13 5 -24 16 -24 24 0 13 54 66 68 66 3 0 19 -12 34 -27z m-1799 -62 c27 -27
-42 -43 -78 -18 -28 21 -9 40 33 33 19 -3 40 -10 45 -15z m-2565 -258 c-3 -29
-32 -43 -50 -25 -18 18 1 52 28 52 22 0 25 -4 22 -27z m5276 -28 c21 -10 41
-31 54 -58 24 -50 33 -128 15 -134 -9 -3 -13 5 -13 24 0 21 -12 41 -42 70 -49
48 -83 63 -140 63 l-41 0 44 24 c52 29 80 31 123 11z m-24 -277 c11 -18 20
-45 20 -59 0 -15 7 -33 16 -40 14 -11 18 -10 33 9 36 48 43 -17 9 -86 -13 -25
-34 -52 -47 -60 -21 -15 -24 -14 -40 5 -10 13 -22 18 -33 14 -27 -10 -78 -60
-78 -76 0 -8 -15 -21 -34 -29 -19 -8 -39 -24 -46 -35 -9 -19 -7 -23 25 -38 19
-9 35 -20 35 -24 0 -10 -41 -41 -140 -105 -107 -69 -160 -75 -160 -18 0 21 11
30 65 55 57 27 64 33 55 50 -6 10 -23 21 -38 24 -36 8 -57 20 -57 33 0 11 150
92 171 92 7 0 26 11 42 25 17 14 39 25 51 25 15 0 21 6 21 23 0 15 9 28 24 35
44 20 45 118 2 154 -18 15 -19 19 -6 28 8 5 24 10 35 10 11 0 27 5 35 10 20
13 18 14 40 -22z m-4514 -115 c33 -33 44 -80 44 -187 0 -58 -4 -116 -9 -129
-17 -43 -5 -63 34 -59 42 5 45 -7 28 -138 -22 -180 -92 -371 -145 -400 -26
-14 -31 -13 -70 8 -54 28 -63 28 -100 -3 -34 -29 -53 -32 -62 -9 -14 38 -5 79
33 134 l38 58 6 184 c3 100 10 203 16 228 5 25 15 74 22 110 30 161 109 258
165 203z m2324 -470 c14 -7 50 -13 80 -14 l55 -1 -57 -9 c-32 -4 -68 -14 -80
-21 -13 -6 -32 -11 -44 -10 -11 2 -28 -6 -39 -18 -10 -11 -26 -20 -37 -20 -25
0 -24 59 2 93 17 22 26 25 57 20 20 -4 48 -12 63 -20z m-495 -51 c21 -14 35
-64 29 -98 -3 -19 -9 -34 -13 -34 -8 0 -31 -126 -28 -160 2 -22 -2 -25 -33
-25 -33 0 -35 2 -38 35 -2 19 -7 39 -12 45 -28 36 -16 165 21 215 22 29 52 38
74 22z m713 -195 c9 -8 27 -18 40 -21 15 -5 22 -15 22 -31 0 -13 2 -29 5 -37
11 -29 -21 -51 -83 -59 -34 -3 -94 -20 -134 -37 -57 -24 -83 -29 -114 -25 -29
4 -49 0 -66 -11 -24 -16 -26 -16 -42 8 -23 37 -20 65 17 136 46 90 58 95 211
94 97 -1 131 -5 144 -17z m5036 -189 c-7 -10 -34 -10 -34 0 0 4 5 13 12 20 9
9 14 9 19 0 4 -7 5 -16 3 -20z m-85 0 c11 -11 14 -10 18 0 7 17 23 5 23 -19 0
-10 6 -19 14 -19 7 0 19 -6 25 -14 9 -11 0 -20 -47 -44 -58 -30 -59 -30 -88
-13 -41 25 -53 43 -43 66 4 11 8 16 8 11 1 -5 13 3 27 18 30 29 44 32 63 14z
m-2674 -147 c-49 -64 -95 -131 -95 -138 0 -10 -45 -53 -55 -53 -13 0 -43 -34
-57 -66 -14 -31 -26 -31 -34 1 -5 19 1 37 22 68 15 23 39 60 53 81 28 43 120
134 154 152 43 24 49 4 12 -45z m-4628 -38 c24 -58 4 -234 -45 -408 -9 -32 3
-85 19 -85 6 0 21 -11 34 -25 22 -21 25 -33 25 -90 0 -37 -7 -87 -15 -113 -8
-26 -27 -89 -42 -141 -22 -71 -35 -99 -55 -114 -27 -20 -27 -20 -133 1 -58 11
-113 26 -121 33 -17 14 -13 38 16 103 29 64 38 108 28 139 -6 15 -13 27 -17
27 -15 0 -61 -42 -61 -55 0 -8 -5 -17 -11 -21 -15 -9 -6 85 15 158 17 60 89
245 112 291 19 35 57 37 79 3 45 -68 88 38 83 202 -3 108 5 132 49 132 18 0
28 -9 40 -37z m1618 -89 c23 -9 45 -57 45 -100 0 -56 -31 -144 -57 -161 -26
-17 -44 -13 -105 26 -46 29 -46 30 -41 73 7 57 24 96 57 136 28 32 62 41 101
26z m2756 -231 c-9 -15 -10 -13 -11 13 0 17 3 34 8 38 11 12 14 -32 3 -51z
m3343 26 c16 -13 26 -30 26 -47 0 -15 7 -36 15 -46 20 -26 8 -41 -16 -20 -13
11 -23 14 -31 7 -26 -20 -101 -44 -119 -38 -14 5 -19 16 -19 43 0 50 18 81 60
103 44 24 51 24 84 -2z m-1899 -47 c33 -6 107 -13 165 -17 117 -7 226 -28 282
-56 21 -11 48 -19 62 -19 43 0 157 -47 190 -78 17 -16 56 -41 87 -54 53 -24
112 -71 188 -150 20 -21 43 -38 52 -38 24 0 39 -21 39 -56 0 -22 7 -36 23 -47
12 -8 32 -25 44 -36 l23 -22 -28 -52 -28 -52 -69 0 -70 0 -3 -32 c-4 -41 -34
-45 -71 -9 -20 19 -31 22 -48 15 -33 -12 -32 -63 2 -85 32 -21 36 -74 6 -74
-11 0 -26 8 -33 18 -7 9 -30 31 -50 49 -36 31 -37 33 -18 43 20 11 26 43 14
74 -8 22 -18 20 -51 -8 -46 -39 -75 -42 -110 -12 -17 14 -33 26 -36 26 -2 0
-10 -14 -17 -30 -7 -17 -26 -38 -41 -46 -22 -11 -29 -22 -29 -44 0 -35 -13
-45 -41 -30 -16 9 -24 8 -38 -4 -24 -22 -50 -20 -77 5 -24 22 -39 24 -104 10
-77 -16 -113 -27 -160 -48 -31 -14 -58 -19 -88 -15 -43 4 -43 4 -37 -24 3 -18
2 -22 -2 -12 -8 17 -10 16 -37 -1 -20 -14 -39 -18 -63 -14 -19 3 -59 0 -90 -7
-69 -17 -107 -2 -109 43 -3 69 -97 92 -149 37 -26 -27 -34 -30 -94 -30 -39 0
-78 6 -95 15 -38 20 -56 19 -56 -4 0 -11 -3 -26 -6 -34 -4 -11 1 -13 20 -10
24 5 26 3 26 -30 0 -20 -5 -48 -10 -62 -9 -25 -9 -26 12 -18 13 4 43 7 68 6
25 -1 84 -3 132 -5 49 -2 88 -6 88 -10 0 -9 -25 -34 -61 -60 -13 -10 -40 -18
-61 -18 -37 0 -138 -42 -138 -58 0 -7 -100 -40 -188 -62 -39 -10 -48 -9 -86
14 -24 14 -46 32 -50 41 -3 8 -13 15 -23 15 -26 0 -99 90 -112 136 l-11 40
-71 12 c-39 7 -74 10 -78 7 -4 -2 -31 5 -60 15 -77 30 -116 27 -151 -12 -29
-31 -43 -61 -54 -108 -3 -14 -22 -49 -41 -79 -35 -52 -36 -57 -26 -97 6 -24
11 -66 11 -94 0 -47 -4 -55 -40 -90 -22 -21 -52 -47 -66 -57 -28 -21 -26 -43
5 -43 9 0 38 13 64 30 38 24 51 28 72 20 29 -11 38 -30 57 -115 l13 -60 56 2
c47 1 88 13 142 41 4 2 7 -7 7 -20 0 -38 19 -48 91 -48 53 0 80 6 130 30 59
27 68 28 108 18 35 -9 53 -8 97 6 29 9 95 24 145 32 50 8 103 20 117 28 15 7
42 16 60 19 18 4 48 18 66 32 18 14 36 25 39 25 3 0 9 -16 13 -35 3 -19 10
-35 15 -35 5 0 9 -16 9 -35 0 -27 -8 -43 -31 -66 -40 -39 -38 -82 5 -89 17 -3
29 -8 28 -12 -1 -5 -2 -12 -2 -18 0 -5 -9 -10 -21 -10 -12 0 -48 -22 -81 -50
-33 -27 -65 -50 -72 -50 -7 0 -23 -11 -36 -25 -18 -19 -34 -25 -66 -25 -24 0
-45 -4 -48 -9 -13 -20 -241 -30 -260 -11 -18 18 -58 11 -88 -15 -21 -18 -42
-25 -71 -25 -23 -1 -69 -6 -101 -13 -54 -11 -61 -16 -79 -51 -11 -21 -36 -55
-55 -75 -18 -20 -45 -60 -59 -89 -31 -66 -26 -112 23 -215 19 -39 34 -79 34
-89 0 -20 37 -48 63 -48 10 0 32 7 49 16 37 19 68 9 95 -32 l17 -27 -52 -47
c-52 -46 -61 -67 -42 -86 8 -8 3 -24 -16 -52 -21 -32 -32 -40 -48 -36 -16 4
-27 -3 -44 -25 -26 -36 -78 -49 -122 -31 -29 12 -60 49 -60 71 0 6 -16 29 -35
50 -35 39 -44 73 -26 107 12 25 -6 80 -30 93 -12 6 -47 31 -79 55 -46 34 -66
44 -97 44 -51 0 -66 -11 -61 -46 5 -44 -18 -41 -130 15 -99 50 -136 59 -179
46 -15 -5 -24 -2 -32 13 -8 16 -6 27 14 53 13 19 39 57 59 85 54 78 54 78 159
71 233 -17 325 49 331 236 3 88 -9 125 -41 133 -34 9 -56 -6 -64 -43 -9 -45
-15 -51 -71 -68 -79 -23 -107 -19 -204 30 -76 38 -98 45 -149 45 -36 0 -66 -5
-73 -12 -33 -33 -43 61 -13 120 22 42 125 143 223 217 102 77 260 205 288 234
45 45 63 83 62 124 -1 22 -6 45 -11 51 -5 6 -14 35 -20 65 -6 31 -24 69 -40
90 l-29 37 19 24 c11 14 28 41 39 60 19 35 48 69 139 165 26 28 65 77 87 110
78 121 216 258 339 336 22 14 92 59 155 101 63 42 130 84 149 93 99 49 281 95
416 104 146 9 411 6 480 -7z m3276 -30 c24 -22 29 -32 24 -53 -8 -33 -96 -99
-141 -106 -30 -5 -35 -2 -44 22 -12 32 3 70 51 128 37 45 67 48 110 9z m-1246
-124 c21 -9 25 -18 25 -55 0 -23 -4 -43 -9 -43 -11 0 -71 74 -71 88 0 9 5 13
27 21 1 1 14 -4 28 -11z m1016 -91 c31 -37 24 -78 -21 -122 -22 -21 -40 -46
-40 -55 0 -10 -9 -25 -20 -35 -19 -17 -21 -17 -40 0 -11 10 -20 24 -20 31 0 7
-13 22 -29 33 -19 14 -31 33 -35 57 -4 19 -9 41 -11 47 -10 27 31 59 91 71 66
14 96 8 125 -27z m-4631 13 c0 -11 -7 -23 -15 -26 -8 -4 -15 -11 -15 -18 0 -6
-12 -22 -25 -35 -14 -13 -25 -27 -25 -32 0 -5 -19 -28 -41 -50 -32 -32 -43
-38 -50 -28 -5 8 -9 17 -9 20 0 12 73 99 89 104 9 3 29 23 45 45 33 45 46 50
46 20z m2780 -90 c0 -13 -11 -13 -30 0 -12 8 -11 10 8 10 12 0 22 -4 22 -10z
m-2970 -140 c0 -5 -10 -10 -22 -9 -22 0 -22 1 -3 9 11 5 21 9 23 9 1 1 2 -3 2
-9z m-2635 -142 c20 -17 45 -47 56 -67 11 -20 38 -63 59 -96 70 -108 150 -287
150 -337 0 -15 -9 -36 -22 -47 -21 -20 -38 -20 -38 1 0 6 -22 47 -49 92 -26
45 -63 108 -80 141 -81 152 -110 200 -139 230 -31 31 -39 64 -26 99 10 26 50
18 89 -16z m6001 -179 c10 -12 18 -29 16 -39 -2 -11 6 -23 17 -30 29 -15 27
-40 -4 -40 -15 0 -25 6 -25 15 0 8 -9 19 -20 25 -11 6 -20 16 -20 23 0 7 -7
24 -14 40 -14 26 -14 27 8 27 13 0 31 -9 42 -21z m-7876 -43 c0 -17 -7 -39
-14 -48 -12 -17 -14 -17 -30 0 -21 24 -21 60 1 84 22 24 43 6 43 -36z m8986
-31 c20 -19 41 -35 45 -35 25 0 4 -58 -42 -121 -29 -38 -54 -69 -56 -69 -19 0
-43 27 -58 66 -15 40 -16 54 -6 101 12 52 42 93 67 93 7 0 29 -16 50 -35z
m-8400 3 c10 -16 6 -70 -6 -82 -13 -13 -39 21 -40 50 0 34 31 56 46 32z m1825
-31 c-5 -5 -17 -7 -26 -3 -13 5 -14 10 -4 28 11 21 12 21 25 3 9 -12 11 -22 5
-28z m4769 -33 c0 -2 -9 -4 -20 -4 -11 0 -20 4 -20 9 0 5 9 7 20 4 11 -3 20
-7 20 -9z m-6087 -18 c9 -24 -4 -56 -23 -56 -27 0 -37 40 -14 57 23 17 31 16
37 -1z m5664 -13 c2 -6 -3 -13 -12 -16 -10 -5 -15 0 -15 14 0 21 21 22 27 2z
m-6759 -32 c9 -5 11 -17 6 -34 -4 -18 -2 -27 6 -27 6 0 14 9 17 20 7 28 18 25
44 -12 13 -18 31 -39 41 -46 14 -10 16 -18 8 -32 -5 -10 -10 -30 -10 -44 0
-14 -6 -27 -12 -27 -24 -2 -43 3 -58 16 -8 7 -31 15 -50 17 -25 2 -34 7 -31
18 3 8 5 47 7 85 1 39 3 71 3 73 2 5 16 1 29 -7z m6435 -8 c-7 -2 -21 -2 -30
0 -10 3 -4 5 12 5 17 0 24 -2 18 -5z m-5792 -85 c4 -26 10 -52 14 -58 13 -21
-6 -50 -33 -50 -27 0 -27 1 -25 67 1 38 2 74 2 81 1 8 9 12 18 10 13 -2 20
-17 24 -50z m493 -76 c8 -54 6 -65 -9 -82 -22 -25 -57 -26 -77 -2 -13 14 -14
29 -8 76 9 63 21 78 60 74 23 -3 26 -9 34 -66z m436 -9 c0 -15 -34 -43 -52
-43 -29 0 -35 30 -9 51 17 14 27 16 42 9 10 -6 19 -14 19 -17z m4300 -109 c0
-28 -30 -33 -51 -8 -11 14 -10 18 5 29 24 18 46 8 46 -21z m-128 14 c-9 -9
-15 -9 -24 0 -9 9 -7 12 12 12 19 0 21 -3 12 -12z m-3788 -58 c18 -18 18 -19
-15 -35 -21 -11 -58 -18 -103 -19 -70 -1 -71 -1 -74 26 -3 24 1 28 35 37 85
24 126 21 157 -9z m6006 -88 c0 -5 -9 -17 -20 -27 -20 -18 -20 -17 -20 8 0 20
5 27 20 27 11 0 20 -4 20 -8z m-1997 -83 c-7 -25 -30 -42 -47 -36 -20 8 -8 57
18 67 24 9 36 -4 29 -31z m2037 -64 c0 -9 -6 -12 -16 -8 -13 5 -13 7 -2 14 17
11 18 11 18 -6z m-2935 -35 c-3 -5 -21 -10 -38 -10 -24 0 -28 3 -17 10 20 13
63 13 55 0z m1958 -14 c37 -16 83 -61 69 -70 -5 -3 -38 -1 -73 5 -88 15 -134
6 -258 -46 -85 -36 -116 -55 -154 -94 -69 -71 -120 -74 -103 -6 9 37 36 60 92
80 27 9 58 22 69 28 63 35 175 91 205 102 46 18 113 18 153 1z m957 -76 c0
-22 -16 -35 -25 -20 -9 14 4 52 16 45 5 -4 9 -15 9 -25z m-2093 14 c-3 -3 -12
-4 -19 -1 -8 3 -5 6 6 6 11 1 17 -2 13 -5z m-4719 -97 c3 -61 -5 -70 -37 -38
-19 19 -19 63 2 89 19 24 32 5 35 -51z m-139 -24 c-7 -10 -15 -20 -16 -22 -2
-2 -3 5 -3 17 0 14 6 22 16 22 14 0 15 -3 3 -17z m361 -23 c0 -5 -9 -10 -20
-10 -11 0 -20 5 -20 10 0 6 9 10 20 10 11 0 20 -4 20 -10z m4517 -93 c-2 -15
2 -32 10 -38 23 -19 4 -29 -58 -29 l-59 0 15 38 c9 20 28 50 43 65 25 26 27
27 40 10 7 -10 11 -30 9 -46z m968 -27 c-28 -12 -57 -12 -50 0 3 6 21 10 38 9
27 0 29 -2 12 -9z m355 -24 c0 -17 -14 -29 -23 -20 -8 8 3 34 14 34 5 0 9 -6
9 -14z m-145 -27 c0 -17 -6 -25 -22 -27 -26 -4 -27 -3 -13 33 12 32 35 28 35
-6z m-80 -9 c36 -14 40 -34 14 -69 -29 -39 -48 -39 -81 -1 l-26 30 20 25 c21
27 34 30 73 15z m-6748 -45 c2 -6 -4 -20 -12 -30 -15 -20 -15 -20 -36 5 -20
23 -20 25 -2 32 23 9 45 6 50 -7z m8142 -5 c118 -16 165 -51 218 -163 28 -59
28 -57 2 -117 -25 -58 -52 -72 -135 -70 -33 1 -71 2 -87 2 -41 1 -67 -28 -67
-73 0 -44 16 -57 70 -57 55 -1 151 -30 177 -54 13 -12 23 -31 23 -42 0 -36
-59 -97 -119 -123 -90 -40 -120 -32 -142 35 -24 77 -62 91 -117 45 -36 -31
-53 -77 -41 -110 9 -24 42 -41 139 -74 89 -30 99 -40 77 -82 -30 -54 -143
-117 -209 -117 -34 0 -114 88 -127 140 -6 25 -21 81 -33 125 -34 120 -31 165
21 258 l42 78 -25 56 c-49 106 -25 224 64 307 l49 46 73 0 c40 0 106 -5 147
-10z m-1871 -103 l3 -88 -67 -64 c-75 -72 -94 -74 -94 -10 0 29 -6 47 -20 60
-34 31 -33 51 2 110 38 62 76 86 133 83 l40 -3 3 -88z m640 -5 c2 -11 -6 -30
-17 -41 -11 -11 -26 -32 -35 -48 -12 -23 -16 -25 -21 -11 -8 21 42 131 58 125
6 -2 13 -13 15 -25z m-198 -56 c0 -22 -53 -111 -107 -179 -26 -34 -60 -47
-109 -41 -24 3 -48 -1 -64 -10 -40 -24 -172 -86 -195 -92 -16 -4 -30 4 -54 31
-44 51 -37 61 39 57 60 -4 64 -2 99 31 46 43 71 49 130 30 45 -14 50 -14 99 7
52 22 88 66 107 130 8 28 33 60 47 60 4 0 8 -11 8 -24z m-100 -311 c0 -13 -46
-49 -84 -66 -41 -18 -43 -18 -98 3 -56 20 -57 21 -41 44 14 23 21 24 119 24
57 0 104 -2 104 -5z m-3796 -34 c37 -11 84 -32 102 -46 25 -19 38 -24 51 -17
11 7 28 5 51 -5 26 -11 41 -12 58 -4 37 16 51 -7 59 -99 6 -67 12 -86 36 -116
16 -20 29 -43 29 -50 0 -8 11 -21 25 -30 23 -15 25 -22 25 -95 0 -43 5 -98 12
-122 16 -62 5 -97 -30 -97 -22 0 -33 8 -49 38 -12 20 -26 56 -32 80 -7 23 -16
42 -20 42 -11 0 -21 -36 -21 -82 0 -66 -3 -68 -78 -41 -84 30 -106 50 -159
138 -41 70 -65 143 -79 240 -9 67 -19 92 -53 130 -15 18 -38 53 -50 78 -18 38
-20 50 -11 67 13 25 22 24 134 -9z m3356 -23 c20 -26 17 -38 -9 -38 -27 0 -55
25 -48 44 9 23 36 20 57 -6z m-4962 -36 c38 -27 40 -47 9 -84 -15 -19 -35 -29
-62 -33 -161 -21 -155 -24 -155 60 0 78 11 86 110 82 50 -2 73 -8 98 -25z
m2485 -62 c17 -15 26 -145 16 -228 -11 -93 -20 -122 -44 -142 -9 -7 -22 -27
-29 -44 -19 -43 -133 -157 -150 -150 -17 7 -26 36 -26 91 0 28 -5 45 -16 51
-21 12 -43 106 -55 237 -10 117 -6 148 24 168 43 28 62 28 100 3 35 -24 37
-24 49 -7 21 29 51 41 88 34 19 -3 39 -9 43 -13z m366 -154 c7 -9 44 -15 108
-18 88 -5 99 -8 113 -29 8 -13 23 -30 33 -38 9 -9 17 -19 17 -23 0 -14 -28 -9
-44 7 -27 28 -88 47 -140 44 -32 -1 -66 4 -90 15 -46 21 -90 17 -157 -14 -48
-21 -89 -26 -89 -10 0 22 30 69 47 73 10 3 57 5 104 6 62 1 90 -3 98 -13z
m345 -332 c10 -27 7 -42 -12 -48 -10 -4 -32 -25 -48 -49 -17 -23 -44 -49 -60
-57 -16 -8 -46 -25 -67 -38 -42 -26 -95 -30 -142 -12 -27 10 -192 89 -205 98
-3 2 6 12 20 22 18 14 42 20 82 20 32 0 77 6 100 14 54 17 128 33 193 41 28 4
57 10 65 16 24 14 67 11 74 -7z m3007 -36 c5 -7 9 -20 9 -29 0 -14 -11 -16
-62 -15 -35 0 -96 -3 -135 -8 -61 -7 -73 -6 -73 6 0 8 15 20 33 26 17 6 50 18
72 26 46 19 143 15 156 -6z m-6451 -72 c5 -35 9 -40 52 -56 28 -10 51 -14 60
-9 7 5 29 9 48 9 29 0 44 -8 82 -47 44 -45 68 -87 68 -118 0 -37 -82 -42 -116
-7 -18 17 -92 32 -118 22 -9 -3 -23 -17 -30 -32 -12 -22 -12 -28 1 -41 13 -13
13 -21 3 -53 -17 -52 -27 -56 -73 -33 -21 11 -45 18 -53 15 -8 -3 -25 -1 -37
5 -19 9 -30 7 -57 -10 -23 -14 -39 -17 -50 -11 -28 15 -58 0 -70 -35 -20 -60
-93 -102 -120 -70 -10 12 -11 34 -3 99 8 67 18 98 47 151 44 77 128 150 194
167 30 7 58 25 88 55 53 54 77 54 84 -1z m7314 -18 c5 -21 1 -30 -16 -42 -42
-30 -78 -16 -78 29 0 15 72 56 81 46 4 -3 9 -18 13 -33z m-4454 -13 c0 -8 -4
-17 -10 -20 -6 -4 -10 5 -10 20 0 15 4 24 10 20 6 -3 10 -12 10 -20z m2420
-303 c0 -15 -27 -45 -37 -41 -16 6 3 49 22 49 8 0 15 -4 15 -8z m130 -32 c0
-5 -9 -10 -21 -10 -11 0 -17 5 -14 10 3 6 13 10 21 10 8 0 14 -4 14 -10z
m-5028 -143 c-5 -7 -15 -43 -22 -82 -14 -82 -36 -141 -63 -171 -18 -21 -20
-21 -58 -6 -52 20 -69 52 -55 98 8 24 17 34 31 34 16 0 17 2 6 9 -9 6 -22 6
-34 -1 -10 -5 -21 -7 -25 -4 -3 3 0 6 6 6 7 0 12 15 12 36 0 30 9 47 47 88 26
28 50 52 54 54 3 1 13 -11 21 -27 l14 -30 27 25 c19 17 27 35 27 58 0 18 3 36
8 40 10 11 15 -114 4 -127z m2036 -128 c29 -22 230 -89 269 -89 36 0 123 -29
209 -70 35 -16 83 -34 106 -39 39 -9 68 -32 68 -53 0 -13 -47 -28 -88 -28 -20
0 -52 -9 -70 -20 -29 -18 -36 -19 -60 -6 -15 7 -70 27 -122 44 -52 17 -115 40
-140 51 -25 11 -55 21 -68 21 -13 0 -60 18 -105 41 -45 22 -93 46 -107 53 -47
22 -32 113 20 126 26 7 50 -1 88 -31z m-2577 -47 c52 -22 126 -59 165 -81 38
-22 89 -43 114 -46 25 -4 54 -11 65 -16 11 -4 38 -10 60 -11 34 -3 40 -7 43
-28 5 -39 29 -50 106 -50 68 0 72 -1 88 -30 15 -27 15 -31 2 -45 -13 -12 -13
-15 -2 -15 8 0 27 -13 43 -30 17 -18 62 -43 109 -61 88 -33 146 -80 146 -115
0 -35 12 -35 60 -3 67 45 206 109 259 119 85 16 145 33 216 61 48 18 99 29
160 34 50 3 135 16 190 27 74 15 143 20 267 21 92 1 170 -2 174 -6 4 -4 -3
-18 -15 -31 -12 -13 -30 -39 -39 -57 -14 -26 -31 -39 -86 -61 -38 -15 -75 -36
-82 -45 -19 -26 -17 -63 6 -98 11 -16 24 -53 30 -81 12 -55 56 -114 87 -114
17 -1 17 -2 -1 -15 -29 -22 -56 -18 -85 9 -20 19 -39 26 -81 28 -54 3 -54 3
-72 -35 -24 -49 -50 -58 -130 -47 -73 11 -176 4 -233 -15 -22 -7 -77 -15 -123
-18 -98 -5 -121 -18 -61 -36 70 -21 236 -206 259 -289 6 -22 29 -55 60 -84 38
-36 50 -55 50 -77 0 -43 16 -78 55 -124 52 -61 54 -93 11 -164 -19 -32 -45
-77 -57 -101 -23 -46 -48 -58 -104 -49 -29 5 -38 1 -57 -22 -34 -39 -47 -45
-66 -28 -21 18 -129 29 -154 16 -10 -5 -46 -11 -79 -12 -55 -1 -62 -4 -71 -27
l-10 -25 -22 28 c-28 35 -54 35 -62 -1 -4 -15 -11 -30 -17 -33 -12 -8 -83 8
-121 27 -34 16 -62 18 -71 4 -3 -5 -28 -1 -59 12 -53 20 -56 20 -108 3 -29
-10 -63 -24 -75 -32 -15 -10 -27 -11 -40 -5 -21 11 -142 22 -161 15 -7 -3 -19
-18 -28 -35 -15 -28 -18 -30 -60 -23 -41 6 -45 4 -54 -19 -5 -14 -15 -26 -22
-26 -7 0 -30 -5 -51 -11 -36 -10 -42 -17 -78 -95 -22 -46 -41 -84 -44 -84 -2
0 -20 10 -40 21 -30 18 -45 20 -88 15 -29 -4 -86 -9 -127 -11 -41 -2 -94 -8
-117 -13 l-43 -9 0 36 c0 48 24 114 61 167 46 68 60 109 66 203 5 79 8 89 41
131 20 25 77 86 128 135 50 50 111 117 135 151 41 56 115 128 235 229 66 55
228 135 273 135 20 0 63 9 96 20 33 11 77 22 98 25 l38 6 -33 45 c-21 30 -34
61 -38 92 l-5 47 -65 6 c-76 8 -84 5 -67 -22 8 -14 9 -22 1 -27 -6 -4 -13 -15
-17 -24 -3 -10 -14 -18 -23 -18 -15 0 -16 5 -3 45 3 11 -8 120 -17 168 -5 26
-8 27 -22 14 -41 -36 -155 -44 -248 -17 -64 18 -121 -1 -141 -47 -11 -27 -12
-42 -4 -60 13 -29 4 -76 -21 -102 -16 -17 -23 -19 -40 -10 -11 6 -37 8 -57 5
-29 -4 -41 -1 -54 14 -12 15 -24 19 -42 14 -20 -5 -25 -2 -25 14 0 22 -72 86
-115 102 -52 20 -88 12 -123 -26 -30 -33 -36 -35 -72 -29 -25 4 -57 1 -92 -10
-106 -34 -110 -34 -130 -24 -19 10 -54 9 -141 -7 -36 -6 -38 -5 -53 31 -8 20
-14 49 -12 63 5 47 110 62 259 36 32 -5 41 -2 73 28 29 26 45 33 77 33 46 0
72 24 88 83 9 30 7 33 -19 47 -32 16 -91 20 -118 7 -9 -4 -59 -6 -110 -3 -52
3 -100 2 -109 -3 -9 -5 -25 -4 -39 3 -19 8 -24 18 -24 48 0 47 22 74 80 103
38 19 54 22 114 17 96 -8 133 9 138 65 6 66 -7 75 -122 84 -82 5 -102 10 -110
25 -13 24 -13 65 1 92 16 29 13 27 56 42 28 10 91 13 233 11 l195 -3 96 -41z
m4209 -175 c0 -15 -55 -41 -72 -34 -8 3 -6 6 4 6 10 1 22 10 28 21 12 22 40
27 40 7z m-1925 -547 c18 -7 18 -8 -7 -15 -32 -8 -58 3 -37 16 16 10 18 10 44
-1z m5595 -57 c0 -13 -3 -13 -15 -3 -8 7 -12 16 -9 21 8 13 24 1 24 -18z
m-8059 -15 c11 -13 34 -38 52 -55 36 -37 39 -36 -68 -37 -80 -1 -134 -28 -158
-79 -14 -30 -23 -38 -40 -35 -52 7 -24 83 52 138 24 18 45 40 48 50 11 40 82
52 114 18z m139 -8 c0 -5 -5 -10 -11 -10 -5 0 -7 5 -4 10 3 6 8 10 11 10 2 0
4 -4 4 -10z m479 -20 l34 -29 -14 -53 c-13 -51 -16 -53 -50 -56 -30 -3 -43 3
-73 31 -20 19 -36 38 -36 43 0 12 82 94 95 94 5 -1 25 -14 44 -30z m7471 8 c0
-18 -2 -20 -9 -8 -6 8 -7 18 -5 22 9 14 14 9 14 -14z m37 -95 c-3 -10 -5 -4
-5 12 0 17 2 24 5 18 2 -7 2 -21 0 -30z m463 -926 c23 -45 50 -97 60 -116 29
-53 15 -68 -61 -65 -80 3 -115 34 -125 108 -8 55 4 70 49 60 16 -3 27 -1 27 5
0 6 -15 11 -34 11 -46 0 -88 50 -76 89 5 14 11 39 15 55 l6 29 48 -47 c29 -28
66 -82 91 -129z m-6430 52 c10 -30 15 -58 13 -62 -8 -13 -75 2 -95 20 -24 22
-23 75 3 107 22 28 22 28 41 8 11 -11 28 -44 38 -73z m-454 -177 c-7 -11 -46
-4 -46 8 0 12 33 18 44 9 4 -4 5 -12 2 -17z m14 -116 c0 -35 -15 -49 -44 -42
-33 8 -35 47 -3 69 26 18 47 6 47 -27z m6891 34 c32 6 39 4 49 -15 6 -12 10
-39 8 -61 l-3 -39 -54 -3 c-47 -3 -57 0 -83 25 -22 21 -28 33 -23 53 10 38 24
50 47 41 12 -4 38 -5 59 -1z m-6391 -40 c0 -16 -5 -30 -10 -30 -6 0 -16 -12
-22 -27 -21 -50 -38 -64 -62 -51 -36 19 -50 58 -21 58 14 0 24 17 39 63 4 12
16 17 41 17 32 0 35 -2 35 -30z m6177 -57 c7 -18 18 -33 23 -33 6 0 10 -9 10
-20 0 -22 24 -26 75 -11 26 7 36 4 64 -19 l33 -28 -23 -13 c-41 -22 -129 -7
-129 22 0 15 -42 48 -60 49 -33 0 -67 63 -55 101 7 20 7 20 27 2 12 -10 27
-33 35 -50z m-7090 12 c10 -20 24 -35 34 -35 10 0 21 -4 24 -10 3 -6 -5 -10
-19 -10 -39 0 -74 -17 -81 -40 -9 -28 45 -76 95 -86 53 -10 54 -13 14 -45 -49
-38 -105 -40 -136 -4 l-22 25 -35 -34 c-34 -31 -94 -53 -130 -47 -8 1 -46 -5
-86 -14 -55 -13 -83 -15 -117 -8 -30 7 -52 7 -64 0 -10 -6 -51 -10 -90 -10
-64 0 -76 3 -104 26 -17 15 -35 27 -40 27 -12 0 -20 28 -14 45 4 8 16 15 28
15 13 0 32 11 45 24 34 36 86 46 232 45 100 -1 149 3 194 16 33 9 71 20 85 23
44 12 70 35 70 63 0 20 9 33 33 48 46 30 65 26 84 -14z m302 -30 c-33 -34 -88
-34 -125 0 l-27 25 88 0 87 0 -23 -25z m441 15 c0 -5 -6 -10 -14 -10 -8 0 -18
5 -21 10 -3 6 3 10 14 10 12 0 21 -4 21 -10z m6243 -40 c9 -11 25 -20 36 -20
10 0 21 -7 25 -15 3 -8 13 -15 23 -15 23 0 67 -46 58 -60 -9 -15 -47 -2 -63
21 -15 21 -73 26 -116 9 -21 -8 -27 -6 -36 10 -5 10 -10 26 -10 34 0 19 35 56
53 56 7 0 20 -9 30 -20z m-112 -73 c9 -33 -7 -77 -27 -77 -18 0 -34 32 -34 69
0 49 48 55 61 8z m-6703 -34 c-10 -2 -26 -2 -35 0 -10 3 -2 5 17 5 19 0 27 -2
18 -5z m-2271 -75 c-3 -8 -6 -5 -6 6 -1 11 2 17 5 13 3 -3 4 -12 1 -19z m-113
-107 c17 -7 17 -9 -9 -29 -25 -20 -55 -29 -55 -18 0 3 4 16 10 30 10 27 21 30
54 17z m-311 -78 c-7 -2 -19 -2 -25 0 -7 3 -2 5 12 5 14 0 19 -2 13 -5z"/>
<path d="M814 7728 c-18 -8 -23 -22 -28 -72 -4 -33 -2 -74 2 -91 l9 -30 17 40
c43 101 43 172 0 153z"/>
<path d="M865 7475 c-3 -14 -8 -37 -11 -52 -3 -15 -10 -31 -15 -34 -6 -3 -9
-24 -7 -45 3 -31 5 -35 12 -19 4 11 14 32 22 47 19 36 29 114 15 122 -6 4 -13
-4 -16 -19z"/>
<path d="M931 6169 c-14 -41 -13 -68 3 -97 l13 -24 26 32 c27 32 32 55 21 98
-10 35 -49 29 -63 -9z"/>
<path d="M7260 5813 c0 -11 9 -31 19 -44 18 -22 20 -23 27 -6 5 13 -1 27 -20
45 -25 25 -26 26 -26 5z"/>
<path d="M6231 5721 c-26 -20 -21 -41 10 -41 32 0 59 19 59 40 0 26 -36 26
-69 1z"/>
<path d="M6655 5730 c3 -5 8 -10 11 -10 2 0 4 5 4 10 0 6 -5 10 -11 10 -5 0
-7 -4 -4 -10z"/>
<path d="M6092 5453 c-16 -6 -34 -51 -27 -63 8 -14 54 10 60 31 10 31 -4 44
-33 32z"/>
<path d="M3883 3740 c0 -25 2 -35 4 -22 2 12 2 32 0 45 -2 12 -4 2 -4 -23z"/>
<path d="M3760 3541 c0 -11 5 -23 10 -26 6 -3 10 1 10 9 0 9 0 19 1 23 0 4 -4
9 -10 11 -6 2 -11 -5 -11 -17z"/>
<path d="M4497 3709 c-9 -13 -17 -33 -17 -44 0 -28 24 -60 38 -51 13 8 15 70
3 100 -7 18 -8 18 -24 -5z"/>
<path d="M2125 2699 c-4 -12 -2 -26 4 -32 8 -8 11 -2 11 21 0 37 -6 41 -15 11z"/>
<path d="M3275 1949 c-4 -5 14 -9 41 -9 55 0 55 5 2 13 -21 3 -40 1 -43 -4z"/>
<path d="M3420 1916 c0 -6 79 -46 90 -46 5 0 -1 11 -14 25 -14 14 -34 25 -50
25 -14 0 -26 -2 -26 -4z"/>
<path d="M3776 9768 c-8 -12 -13 -25 -10 -30 8 -13 49 -9 70 7 19 15 19 15 0
30 -27 21 -42 19 -60 -7z"/>
<path d="M3943 9043 c9 -2 25 -2 35 0 9 3 1 5 -18 5 -19 0 -27 -2 -17 -5z"/>
<path d="M3570 8031 c0 -17 18 -21 24 -6 3 9 0 15 -9 15 -8 0 -15 -4 -15 -9z"/>
<path d="M9893 4003 c-20 -4 -23 -11 -23 -54 0 -41 3 -49 18 -49 32 0 63 38
60 73 -3 33 -14 38 -55 30z"/>
<path d="M970 235 c0 -16 41 -30 69 -22 11 3 26 -4 36 -15 15 -18 18 -19 32
-5 25 25 9 43 -43 51 -73 10 -94 8 -94 -9z"/>
<path d="M1152 241 c-10 -6 -10 -10 3 -21 12 -10 18 -10 30 0 13 11 13 15 3
21 -7 5 -15 9 -18 9 -3 0 -11 -4 -18 -9z"/>
</g>
</svg>
